# xmcd
#
# Track frame offsets:
#	150
#	17648
#	21973
#	41324
#	64266
#	85202
#	92380
#	109359
#	121751
#	139552
#	146670
#	166822
#	190795
#	209742
#
# Disc length: 3032 seconds
#
# Revision: 0
# Processed by: cddbd v1.5.1PL0 Copyright (c) Steve Scherf et al.
# Submitted via: audiograbber 1.83.01
#
DISCID=b90bd60e
DTITLE=Xavier Rudd - Solace
DYEAR=2004
DGENRE=
TTITLE0=Shelter
TTITLE1=Degrees 
TTITLE2=Let Me Be 
TTITLE3=Solace 
TTITLE4=G.B.A.
TTITLE5=In Transit 
TTITLE6=Changes
TTITLE7=Journey Song
TTITLE8=Fourth World
TTITLE9=Yirra-Curl 
TTITLE10=No Woman No Cry 
TTITLE11=Partnership 
TTITLE12=Silence
TTITLE13=Green Spandex
EXTD=
EXTT0=
EXTT1=
EXTT2=
EXTT3=
EXTT4=
EXTT5=
EXTT6=
EXTT7=
EXTT8=
EXTT9=
EXTT10=
EXTT11=
EXTT12=
EXTT13=
PLAYORDER=
